<svg xmlns="http://www.w3.org/2000/svg" viewBox="0 0 1168 530" width="1168" height="530"
     font-family="Hiragino Kaku Gothic ProN, Noto Sans JP, sans-serif">

  <rect x="0" y="0" width="1168" height="530" fill="#ffffff"/>

  <g transform="translate(0,50)">

  <rect x="24" y="20" width="470" height="320" fill="#ffffff" stroke="#1c2126" stroke-width="3"/>
  <text x="259" y="78" text-anchor="middle" font-size="44" font-weight="bold" fill="#1c2126">クライアント</text>
  <rect x="62" y="175" width="394" height="76" fill="#ffffff" stroke="#17558f" stroke-width="3"/>
  <text x="259" y="229" text-anchor="middle" font-size="52" font-weight="bold" fill="#17558f">画面</text>

  <text x="259" y="406" text-anchor="middle" font-size="40" font-weight="bold" fill="#1c2126">ユーザーから見える場所</text>

  <text x="562" y="143" text-anchor="middle" font-size="40" fill="#5c6570">送る</text>
  <line x1="520" y1="169" x2="590" y2="169" stroke="#5c6570" stroke-width="5"/>
  <polygon points="604,169 586,159 586,179" fill="#5c6570"/>

  <text x="562" y="223" text-anchor="middle" font-size="40" fill="#5c6570">返す</text>
  <line x1="534" y1="249" x2="604" y2="249" stroke="#5c6570" stroke-width="5"/>
  <polygon points="520,249 538,239 538,259" fill="#5c6570"/>

  <rect x="630" y="20" width="514" height="320" fill="#f2f1ed" stroke="#1c2126" stroke-width="3"/>
  <text x="887" y="78" text-anchor="middle" font-size="44" font-weight="bold" fill="#1c2126">サーバー</text>

  <rect x="668" y="106" width="438" height="76" fill="#ffffff" stroke="#b8501e" stroke-width="3"/>
  <text x="887" y="160" text-anchor="middle" font-size="52" font-weight="bold" fill="#b8501e">処理</text>

  <line x1="887" y1="204" x2="887" y2="222" stroke="#5c6570" stroke-width="4"/>
  <polygon points="887,190 878,208 896,208" fill="#5c6570"/>
  <polygon points="887,236 878,218 896,218" fill="#5c6570"/>

  <rect x="668" y="244" width="438" height="76" fill="#ffffff" stroke="#2c6b4f" stroke-width="3"/>
  <text x="887" y="298" text-anchor="middle" font-size="52" font-weight="bold" fill="#2c6b4f">保存</text>

  <text x="887" y="406" text-anchor="middle" font-size="40" font-weight="bold" fill="#1c2126">ユーザーから見えない</text>

  </g>
</svg>
