<svg xmlns="http://www.w3.org/2000/svg" viewBox="0 0 940 330" width="940" height="330" font-family="system-ui, -apple-system, 'Hiragino Sans', 'Noto Sans JP', sans-serif">
  <defs>
    <marker id="po-arrow" viewBox="0 0 10 10" refX="9" refY="5" markerWidth="6" markerHeight="6" orient="auto-start-reverse">
      <path d="M0 0 L10 5 L0 10 z" fill="#33b1dd" />
    </marker>
  </defs>

  <!-- バラバラで詰まっている -->
  <rect x="40" y="20" width="210" height="250" rx="14" fill="#ffffff" stroke="#c9ced6" stroke-width="3" />
  <rect x="40" y="20" width="210" height="34" rx="14" fill="#f1f2f4" />
  <rect x="40" y="38" width="210" height="16" fill="#f1f2f4" />
  <rect x="58" y="30" width="76" height="12" rx="6" fill="#c9ced6" />
  <text x="58" y="76" font-size="12" fill="#6b7078">アイスコーヒー</text>
  <text x="58" y="94" font-size="12" fill="#33b1dd">キャンペーン情報はこちら</text>
  <text x="58" y="112" font-size="12" fill="#6b7078">サイズ：S ／ M ／ L</text>
  <text x="58" y="130" font-size="12" fill="#6b7078">受け取り：店内 ／ 持ち帰り</text>
  <text x="58" y="148" font-size="12" fill="#33b1dd">利用規約　よくある質問</text>
  <text x="58" y="166" font-size="12" fill="#6b7078">￥500</text>
  <text x="58" y="184" font-size="12" fill="#6b7078">氷：多め ／ 普通 ／ 少なめ</text>
  <text x="58" y="202" font-size="12" fill="#33b1dd">お問い合わせ　会員登録</text>
  <rect x="58" y="216" width="80" height="24" rx="5" fill="#33b1dd" />
  <text x="98" y="232" text-anchor="middle" font-size="11" fill="#ffffff">注文する</text>
  <text x="145" y="304" text-anchor="middle" font-size="26" fill="#e0574a">どれが仲間か分からない</text>

  <line x1="284" y1="140" x2="336" y2="140" stroke="#33b1dd" stroke-width="4" marker-end="url(#po-arrow)" />

  <!-- ひとかたまり＋余白 -->
  <rect x="370" y="20" width="210" height="250" rx="14" fill="#ffffff" stroke="#33b1dd" stroke-width="3" />
  <rect x="370" y="20" width="210" height="34" rx="14" fill="#f1f2f4" />
  <rect x="370" y="38" width="210" height="16" fill="#f1f2f4" />
  <rect x="388" y="30" width="76" height="12" rx="6" fill="#c9ced6" />

  <rect x="386" y="70" width="178" height="72" rx="8" fill="#f7fbfd" stroke="#33b1dd" stroke-width="2" stroke-dasharray="7 5" />
  <text x="400" y="96" font-size="15" fill="#202228">アイスコーヒー</text>
  <text x="400" y="126" font-size="19" font-weight="700" fill="#202228">￥500</text>

  <rect x="386" y="156" width="178" height="46" rx="8" fill="#f7fbfd" stroke="#33b1dd" stroke-width="2" stroke-dasharray="7 5" />
  <text x="400" y="184" font-size="14" fill="#6b7078">サイズ：S ／ M ／ L</text>

  <rect x="390" y="218" width="170" height="38" rx="10" fill="#33b1dd" />
  <text x="475" y="243" text-anchor="middle" font-size="18" fill="#ffffff">注文する</text>
  <text x="475" y="304" text-anchor="middle" font-size="26" fill="#1c8fb5">ひと目でまとまりが分かる</text>

  <!-- 注釈 -->
  <rect x="622" y="118" width="14" height="14" rx="3" fill="#33b1dd" />
  <text x="656" y="132" font-size="26" fill="#202228">関係あるものは近づける</text>
  <rect x="622" y="176" width="14" height="14" rx="3" fill="#33b1dd" />
  <text x="656" y="190" font-size="26" fill="#202228">まわりに余白をとる</text>
</svg>
